<?xml version="1.0" encoding="UTF-8" standalone="no"?>
<!-- Created with Inkscape (http://www.inkscape.org/) -->

<svg
   width="85.938545mm"
   height="94.796799mm"
   viewBox="0 0 85.938545 94.796799"
   version="1.1"
   id="svg1"
   xmlns="http://www.w3.org/2000/svg"
   xmlns:svg="http://www.w3.org/2000/svg">
  <defs
     id="defs1" />
  <g
     id="layer1"
     transform="translate(-62.17704,-101.07084)">
    <path
       fill="#d20100"
       opacity="1"
       stroke="none"
       d="m 120.18929,149.04169 c 2.32967,6.5123 4.63078,12.92449 6.97983,19.47031 -16.72233,0 -33.272915,0 -49.917376,0 0.04108,-0.23762 0.04644,-0.48684 0.127875,-0.70805 2.829261,-7.68432 5.680266,-15.36069 8.482023,-23.05499 0.336326,-0.92361 0.769083,-1.26941 1.78878,-1.26509 9.742106,0.0414 19.484518,0.0387 29.226638,-0.002 0.99072,-0.004 1.49533,0.23677 1.77887,1.2309 0.40952,1.43577 0.99461,2.82146 1.53336,4.3286 z"
       id="path2"
       style="stroke-width:0.264583" />
    <path
       fill="#d20100"
       opacity="1"
       stroke="none"
       d="m 114.35743,119.42003 c 1.24875,1.49127 2.49037,2.87066 3.59833,4.35014 0.383,0.51144 0.5505,1.26122 0.60977,1.9207 0.0975,1.08439 0.0264,2.18392 0.0264,3.37683 -10.74696,0 -21.389644,0 -32.198828,0 0,-1.5828 -0.01402,-3.1535 0.01524,-4.7234 0.0043,-0.23324 0.174011,-0.49393 0.332158,-0.68934 4.907047,-6.06337 9.823214,-12.11934 14.73088,-18.1822 0.13766,-0.17007 0.19776,-0.40297 0.40999,-0.8519 4.31638,5.11944 8.36641,9.923 12.47604,14.79917 z"
       id="path3"
       style="stroke-width:0.264583" />
    <path
       fill="#f1f2f2"
       opacity="1"
       stroke="none"
       d="m 142.08227,189.64044 c -0.9689,-2.07027 -1.89066,-4.05229 -2.81244,-6.03432 -0.0797,0.0131 -0.15931,0.0261 -0.23897,0.0392 0,3.9897 0,7.97938 0,12.06805 -1.07841,0 -2.01409,0 -3.03337,0 0,-6.37615 0,-12.7444 0,-19.27037 0.82582,0 1.67158,-0.1028 2.47173,0.0436 0.39608,0.0725 0.84686,0.53826 1.0364,0.93817 1.58011,3.33389 3.1024,6.69518 4.64961,10.04473 0.23059,0.49923 0.50008,0.98048 1.00006,1.41912 0,-4.09402 0,-8.18805 0,-12.34752 1.06444,0 1.97406,0 2.9583,0 0,6.34836 0,12.67013 0.002,18.99196 -2.28603,0.68714 -3.04393,0.39547 -4.03158,-1.62417 -0.67562,-1.38162 -1.30465,-2.78604 -2.00165,-4.26849 z"
       id="path4"
       style="stroke-width:0.264583" />
    <path
       fill="#f4f5f5"
       opacity="1"
       stroke="none"
       d="m 115.23629,193.19119 c -0.65894,-1.40304 -1.2759,-2.71559 -1.89864,-4.0254 -1.01076,-2.12593 -1.01236,-2.12517 -3.60569,-1.95017 0,2.81703 0,5.65284 0,8.52406 -1.08353,0 -2.00114,0 -2.98957,0 0,-6.41082 0,-12.78118 0,-19.22459 3.41037,0 6.7915,-0.0426 10.17065,0.0201 1.43397,0.0266 2.29788,0.90279 2.36874,2.33392 0.0914,1.84594 0.12801,3.7025 0.0388,5.54727 -0.0861,1.77881 -0.91142,2.36216 -3.57316,2.73346 1.32215,2.8307 2.6238,5.61751 3.93359,8.42174 -3.07467,0.44501 -3.07467,0.44501 -4.44467,-2.38043 m -5.60589,-13.05105 c 0,1.43194 0,2.86387 0,4.36012 1.9376,0 3.72729,0.003 5.51697,-0.001 0.72449,-0.002 1.1624,-0.30583 1.1542,-1.09937 -0.0113,-1.09592 0.0726,-2.19991 -0.0425,-3.28363 -0.037,-0.34839 -0.56022,-0.90216 -0.88515,-0.91992 -1.70481,-0.0932 -3.41822,-0.07 -5.12616,-0.0128 -0.2131,0.007 -0.41141,0.4559 -0.61738,0.95705 z"
       id="path5"
       style="stroke-width:0.264583" />
    <path
       fill="#f1f2f2"
       opacity="1"
       stroke="none"
       d="m 133.87384,186.31863 c -0.0175,2.2914 0.0275,4.45326 -0.0697,6.60872 -0.0826,1.83099 -0.99755,2.76451 -2.82421,2.83147 -2.28811,0.0839 -4.58501,0.0713 -6.87278,-0.0256 -1.73692,-0.0736 -2.71924,-1.02714 -2.74657,-2.77284 -0.071,-4.53811 -0.0754,-9.07913 0.007,-13.61693 0.0342,-1.8916 1.06616,-2.7997 2.95071,-2.84686 2.20245,-0.0551 4.40758,-0.0562 6.61057,-0.0205 1.896,0.0307 2.93566,1.05404 2.97233,2.96712 0.0431,2.24671 -0.013,4.49531 -0.027,6.87542 m -4.12138,6.59706 c 0.84147,-0.0328 1.1168,-0.51445 1.11715,-1.3032 0.002,-3.74208 0.0201,-7.48422 0.0486,-11.22622 0.006,-0.81692 -0.30484,-1.22081 -1.16916,-1.1966 -1.36386,0.0382 -2.72952,0.0399 -4.09392,0.0214 -0.92346,-0.0125 -1.38327,0.3564 -1.37962,1.32311 0.014,3.69801 0.007,7.39615 -0.005,11.0942 -0.003,0.96963 0.49007,1.32012 1.40841,1.29903 1.27606,-0.0293 2.55325,-0.009 4.07378,-0.0117 z"
       id="path6"
       style="stroke-width:0.264583" />
    <path
       fill="#f1f2f2"
       opacity="1"
       stroke="none"
       d="m 62.201588,179.08105 c 0.220789,-1.76223 0.933923,-2.53073 2.543458,-2.55687 3.299208,-0.0536 6.599888,-0.0161 9.964234,-0.0161 0,0.87065 0,1.68526 0,2.62655 -2.668457,0 -5.300686,0.0554 -7.928845,-0.0239 -1.267912,-0.0383 -1.777992,0.37591 -1.655543,1.65679 0.07932,0.82981 0.08574,1.6831 -0.01265,2.50951 -0.146455,1.23006 0.404522,1.51589 1.516785,1.47558 1.893432,-0.0686 3.791336,-0.0395 5.686925,-0.0162 1.857163,0.0228 2.783996,0.88016 2.844853,2.73204 0.06222,1.89374 0.0639,3.79293 -0.0028,5.68641 -0.06098,1.733 -0.909666,2.59178 -2.669159,2.6228 -3.344434,0.059 -6.690646,0.0171 -10.124278,0.0171 0,-0.83841 0,-1.64379 0,-2.59866 2.648288,0 5.280218,0.003 7.912147,-7.9e-4 1.879285,-0.002 1.883437,-0.0101 1.888805,-1.93976 0.0019,-0.70545 -0.06232,-1.41831 0.01754,-2.11473 0.148529,-1.2953 -0.2594,-1.83128 -1.663377,-1.73469 -1.799035,0.12379 -3.613354,0.0344 -5.420987,0.0217 -2.218444,-0.0156 -2.899685,-0.6956 -2.917391,-2.94178 -0.01389,-1.76346 0.0097,-3.52722 0.02024,-5.40489 z"
       id="path7"
       style="stroke-width:0.264583" />
    <path
       fill="#f4f5f5"
       opacity="1"
       stroke="none"
       d="m 95.063737,176.69162 c 0.03756,4.91761 0.04171,9.7204 0.04844,14.52321 0.0024,1.63483 0.08984,1.72329 1.723652,1.72919 0.969335,0.003 1.938768,-0.003 2.908099,-0.011 1.694522,-0.0147 1.857952,-0.16202 1.878372,-1.91037 0.0232,-1.98254 0.006,-3.96557 0.006,-5.94838 6e-5,-2.81756 3e-5,-5.63513 3e-5,-8.54682 0.96958,0 1.9075,0 2.93718,0 0,3.75903 -9e-5,7.49188 4e-5,11.22474 6e-5,1.71835 0.0496,3.4385 -0.0126,5.15459 -0.0666,1.83863 -0.95978,2.78464 -2.7907,2.84723 -2.288178,0.0782 -4.583582,0.0714 -6.871579,-0.0138 -1.650699,-0.0615 -2.714612,-1.07158 -2.729807,-2.65207 -0.05285,-5.49727 -0.02043,-10.99534 -0.02043,-16.6474 0.991783,0.0467 1.941483,0.0914 2.923593,0.25094 z"
       id="path8"
       style="stroke-width:0.264583" />
    <path
       fill="#f4f5f5"
       opacity="1"
       stroke="none"
       d="m 88.873347,195.80476 c -0.400542,-0.37029 -0.83057,-0.69854 -0.955694,-1.11779 -1.206328,-4.042 -2.360763,-8.09946 -3.532301,-12.15186 -0.07888,-0.27285 -0.176064,-0.54039 -0.366104,-1.11914 -1.478396,4.98804 -2.86762,9.6752 -4.25808,14.36652 -1.077883,0 -2.040863,0 -3.11345,0 1.941307,-6.43189 3.871802,-12.82798 5.817119,-19.27319 0.945301,0 1.902452,0 2.853912,0 1.973175,6.38714 3.939006,12.75048 5.960901,19.2953 -0.846047,0 -1.57018,0 -2.406303,1.6e-4 z"
       id="path9"
       style="stroke-width:0.264583" />
    <path
       fill="#7f0a04"
       opacity="1"
       stroke="none"
       d="m 118.01897,116.8147 c 1.77198,2.13629 3.50846,4.18071 5.16546,6.28763 0.37536,0.47729 0.62604,1.16049 0.67053,1.76819 0.0988,1.35057 0.0308,2.71336 0.0308,4.1845 -1.21512,0 -2.3242,0 -3.63515,0 0,-1.38764 0.0526,-2.74159 -0.0265,-4.0878 -0.0307,-0.52229 -0.23826,-1.12833 -0.57012,-1.52468 -5.2486,-6.26862 -10.51759,-12.52032 -15.82051,-18.74303 -0.6987,-0.81989 -0.89593,-1.41338 0.0362,-2.15892 0.46328,-0.37054 0.80177,-0.89711 1.29776,-1.46976 4.30641,5.27884 8.54679,10.47675 12.8515,15.74387 z"
       id="path10"
       style="stroke-width:0.264583" />
    <path
       fill="#7f0a04"
       opacity="1"
       stroke="none"
       d="m 121.66519,148.62159 c -0.59765,-1.70389 -1.15162,-3.31371 -1.78161,-5.14435 1.312,0 2.44365,-0.0734 3.55457,0.0461 0.3206,0.0345 0.70631,0.57726 0.85097,0.96565 1.93367,5.192 3.82207,10.40082 5.7385,15.59929 1.01639,2.75707 2.06523,5.5022 3.18864,8.48999 -1.37545,0 -2.59009,0.0987 -3.77057,-0.0587 -0.36563,-0.0488 -0.75937,-0.74912 -0.93533,-1.22665 -2.20398,-5.98137 -4.37,-11.97673 -6.54754,-17.96783 -0.0751,-0.20661 -0.16889,-0.40641 -0.29763,-0.70347 z"
       id="path11"
       style="stroke-width:0.264583" />
    <path
       fill="#d20100"
       opacity="1"
       stroke="none"
       d="m 112.35048,133.69035 c -2.26796,2.57809 -4.4708,5.08285 -6.76685,7.69361 -2.54851,-2.78269 -5.03078,-5.49306 -7.68661,-8.39294 5.07572,0 9.91332,0 14.84506,0 -0.10894,0.20887 -0.21771,0.41743 -0.3916,0.69933 z"
       id="path13"
       style="stroke-width:0.264583" />
    <path
       fill="#f1f2f2"
       opacity="1"
       stroke="none"
       d="m 82.575216,189.94667 c 0.09107,-1.42717 1.005485,-1.4377 1.954167,-1.31668 1.301851,0.16609 0.778449,1.27232 1.151441,2.16718 -1.018316,0 -1.879915,0.0362 -2.732837,-0.0336 -0.152331,-0.0125 -0.268763,-0.46375 -0.372771,-0.81694 z"
       id="path14"
       style="stroke-width:0.264583" />
  </g>
</svg>
